# xmcd
#
# Track frame offsets:
#	150
#	10568
#	22893
#	34046
#	46081
#	57596
#	68840
#	78747
#	89812
#
# Disc length: 1377 seconds
#
# Revision: 1
# Processed by: cddbd v1.5.1PL0 Copyright (c) Steve Scherf et al.
# Submitted via: audiograbber 1.83.01
#
DISCID=6b055f09
DTITLE=Patsy Cline - The Patsy Cline Collection - Disc 3
DYEAR=1900
DGENRE=
TTITLE0=Three Cigarettes In An Ashtray
TTITLE1=A Poor Man's Roses
TTITLE2=Stop The Worl And Let Me Off
TTITLE3=Today, Tomorrow, Forever
TTITLE4=I've Loved And Lost Again
TTITLE5=Dear Gid
TTITLE6=Turn The Cards Slowly
TTITLE7=A Stranger In My Arms
TTITLE8=Life's Railway To Heaven
EXTD=
EXTT0=
EXTT1=
EXTT2=
EXTT3=
EXTT4=
EXTT5=
EXTT6=
EXTT7=
EXTT8=
PLAYORDER=
